<svg width="512" height="512" viewBox="0 0 512 512" fill="none" xmlns="http://www.w3.org/2000/svg">
<g clip-path="url(#clip0_1161_175)">
<rect width="512" height="512" rx="25" fill="#0175AF"/>
<path d="M209 519V521H211H225H227V519V145V143L225 143L211 143L209 143V145V519Z" fill="#E5E5E5" stroke="#E5E5E5" stroke-width="4"/>
<path d="M210.526 135.175H208.526V137.175V152.703V154.703H210.526H399.51H401.51V152.703V137.175V135.175H399.51H210.526Z" fill="#E5E5E5" stroke="#E5E5E5" stroke-width="4"/>
<path d="M318.052 282.692H316.052V284.692V300.221V302.221H318.052H512H514V300.221V284.692V282.692H512H318.052Z" fill="#E5E5E5" stroke="#E5E5E5" stroke-width="4"/>
<path d="M56.9319 323.89L55.3383 325.162L56.6403 326.731L65.9894 337.997L67.2423 339.507L68.7759 338.283L221.099 216.738L222.693 215.466L221.391 213.897L212.041 202.631L210.789 201.121L209.255 202.345L133.093 263.118L56.9319 323.89Z" fill="#E5E5E5" stroke="#E5E5E5" stroke-width="4"/>
<path d="M54 519V521H56H72H74V519V328V326H72H56H54V328V519Z" fill="#E5E5E5" stroke="#E5E5E5" stroke-width="4"/>
<path d="M316.052 511.793V513.793H318.052H331.45H333.45V511.793V292.457V290.457H331.45H318.052H316.052V292.457V511.793Z" fill="#E5E5E5" stroke="#E5E5E5" stroke-width="4"/>
<path d="M381.995 284.692V286.692H383.995H399.51H401.51V284.692V141.056V139.056H399.51H383.995H381.995V141.056V284.692Z" fill="#E5E5E5" stroke="#E5E5E5" stroke-width="4"/>
<path d="M235.473 96.7641C235.473 101.666 239.445 105.646 244.352 105.646H364.6C369.508 105.646 373.479 101.666 373.479 96.7641V92.882C373.479 87.9804 369.508 84 364.6 84H244.352C239.445 84 235.473 87.9804 235.473 92.882V96.7641Z" fill="#E5E5E5" stroke="#E5E5E5" stroke-width="10"/>
</g>
<defs>
<clipPath id="clip0_1161_175">
<rect width="512" height="512" rx="25" fill="white"/>
</clipPath>
</defs>
</svg>
