<svg width="159" height="168" viewBox="0 0 159 168" xmlns="http://www.w3.org/2000/svg">
<path d="M19.7097 167H16.2559V140.398H3.4538V167H0V116.368C0 114.837 0.061401 113.275 0.184203 111.682C0.307005 110.089 0.736811 108.65 1.47362 107.363C2.24113 106.077 3.4231 105.035 5.01953 104.239C6.64665 103.412 8.94919 102.998 11.9271 102.998H19.7097V167ZM12.9863 106.077C11.3285 106.077 9.9009 106.214 8.70358 106.49C7.50627 106.766 6.5085 107.241 5.71029 107.914C4.94278 108.558 4.37482 109.446 4.00641 110.579C3.63801 111.713 3.4538 113.137 3.4538 114.852V137.319H16.2559V106.077H12.9863Z" />
<path d="M48.6442 106.571C48.6442 110.247 48.5214 113.555 48.2757 116.495C48.0608 119.405 47.7078 122.039 47.2166 124.398C46.7561 126.726 46.1421 128.793 45.3746 130.601C44.607 132.408 43.686 134.016 42.6115 135.425C42.7343 135.915 42.9185 136.757 43.1641 137.952C43.4404 139.116 43.7628 140.494 44.1312 142.087C44.4996 143.649 44.8987 145.364 45.3285 147.233C45.7583 149.071 46.1881 150.924 46.6179 152.792C47.0477 154.63 47.4622 156.406 47.8613 158.122C48.2604 159.837 48.6135 161.369 48.9205 162.716C49.2275 164.033 49.5652 165.488 49.9336 167.081H46.2495L39.8485 138.365C38.7125 139.345 37.4692 140.234 36.1184 141.03C34.7675 141.796 33.2786 142.516 31.6514 143.19V167.081H28.2437V116.449C28.2437 115.439 28.259 114.397 28.2897 113.325C28.3511 112.253 28.4893 111.227 28.7042 110.247C28.9191 109.267 29.2722 108.348 29.7634 107.49C30.2546 106.602 30.93 105.836 31.7896 105.193C32.6799 104.519 33.8005 103.998 35.1513 103.631C36.5328 103.263 38.2213 103.079 40.2169 103.079H48.6442V106.571ZM31.6514 139.422C32.5111 139.054 33.4474 138.626 34.4605 138.136C35.4736 137.615 36.4714 136.926 37.4538 136.068C38.4669 135.21 39.434 134.123 40.355 132.806C41.3067 131.458 42.1357 129.789 42.8418 127.798C43.5479 125.776 44.1158 123.357 44.5456 120.539C44.9754 117.69 45.1903 114.336 45.1903 110.477V106.158H41.1379C39.5108 106.158 38.0985 106.296 36.9012 106.571C35.7039 106.847 34.7061 107.322 33.9079 107.995C33.1404 108.639 32.5725 109.527 32.204 110.66C31.8356 111.794 31.6514 113.218 31.6514 114.933V139.422Z" />
<path d="M75.768 102.452V105.944C75.768 109.62 75.6452 112.928 75.3996 115.868C75.1846 118.778 74.8316 121.412 74.3404 123.771C73.8799 126.099 73.2659 128.166 72.4984 129.973C71.7308 131.78 70.8098 133.389 69.7353 134.798L76.9911 167.081H73.2186L66.9723 137.738C65.8364 138.718 64.593 139.606 63.2422 140.403C61.8914 141.169 60.4024 141.888 58.7753 142.562V167.081H54.985V9.00003L58.7575 9L58.7753 138.795C59.6349 138.427 60.5713 137.998 61.5844 137.508C62.5975 136.988 63.5953 136.298 64.5777 135.441C65.5908 134.583 66.5578 133.496 67.4788 132.179C68.4305 130.831 69.2595 129.162 69.9656 127.171C70.6717 125.149 71.2396 122.729 71.6694 119.911C72.0993 117.063 72.3141 113.709 72.3141 109.849V102.452H75.768Z" />
<path d="M103.428 167.081H99.652V133.955H86.1591V167.081H82.7053V103.079H86.1591V130.876H99.652V103.079H103.428V167.081Z" />
<path d="M130.66 155.043C130.66 156.728 130.507 158.352 130.2 159.914C129.893 161.476 129.34 162.854 128.542 164.049C127.775 165.243 126.715 166.208 125.365 166.943C124.044 167.648 122.371 168 120.345 168C118.442 168 116.845 167.663 115.556 166.989C114.266 166.285 113.223 165.35 112.424 164.187C111.657 163.023 111.104 161.66 110.766 160.097C110.429 158.505 110.26 156.82 110.26 155.043V115.576C110.26 114.566 110.275 113.524 110.306 112.452C110.367 111.38 110.506 110.354 110.72 109.374C110.935 108.394 111.288 107.475 111.78 106.617C112.271 105.729 112.946 104.963 113.806 104.32C114.696 103.646 115.817 103.125 117.168 102.758C118.549 102.39 120.238 102.206 122.233 102.206H130.66V155.043ZM127.207 105.285H123.2C121.573 105.285 120.161 105.423 118.964 105.698C117.766 105.974 116.768 106.449 115.97 107.123C115.203 107.766 114.635 108.654 114.266 109.787C113.898 110.921 113.714 112.345 113.714 114.06V156.56C113.714 157.662 113.821 158.719 114.036 159.73C114.282 160.71 114.665 161.598 115.187 162.395C115.74 163.16 116.446 163.773 117.306 164.232C118.165 164.692 119.24 164.922 120.529 164.922C121.757 164.922 122.786 164.707 123.615 164.278C124.474 163.819 125.165 163.206 125.687 162.441C126.209 161.675 126.593 160.787 126.838 159.776C127.084 158.765 127.207 157.693 127.207 156.56V105.285Z" />
<path d="M155.251 115.163V103.079H158.705V167.081H155.251V132.209C155.251 128.502 154.883 125.24 154.146 122.422C153.44 119.604 152.473 117.169 151.245 115.117C150.017 113.065 148.574 111.365 146.916 110.017C145.289 108.669 143.555 107.613 141.713 106.847V167.081H138.259V103.079H141.022C142.495 103.539 143.908 104.151 145.258 104.917C146.64 105.652 147.929 106.541 149.127 107.582C150.355 108.593 151.46 109.741 152.442 111.028C153.425 112.284 154.269 113.662 154.975 115.163H155.251Z" />
<path d="M54.985 7H103.705V11H54.985V7Z" />
<path d="M82.7053 45H132.705V49H82.7053V45Z" />
<path d="M15.71 55.5L35.3444 39.8452L54.9789 24.1904L57.3892 27.0925L18.1202 58.4021L15.71 55.5Z" />
<path d="M15.71 104V55.5H19.71V104H15.71Z" />
<path d="M82.7053 103.5V47H86.1591V103.5H82.7053Z" />
<path d="M99.7053 45V8H103.705V45H99.7053Z" />
<path d="M63.7054 3C63.1531 3 62.7054 2.55228 62.7054 2V1C62.7054 0.447715 63.1531 0 63.7054 0H94.7053C95.2576 0 95.7053 0.447715 95.7053 1V2C95.7053 2.55228 95.2576 3 94.7053 3H63.7054Z" />
</svg>
